<?xml version="1.0" encoding="utf-8"?>
<!-- Generator: Adobe Illustrator 19.0.0, SVG Export Plug-In . SVG Version: 6.00 Build 0)  -->
<svg version="1.1" id="Parkii-logo-04192018_xA0_Image_1_"
	 xmlns="http://www.w3.org/2000/svg" xmlns:xlink="http://www.w3.org/1999/xlink" x="0px" y="0px" viewBox="0 0 864 332"
	 style="enable-background:new 0 0 864 332;" xml:space="preserve">
<style type="text/css">
	.st0{fill:#E6194B;}
</style>
<g>
	<path class="st0" d="M432.9,42c126.2,0,252.3,0,378.5,0c10,0,12.6,2.6,12.6,12.8c0,75,0,150,0,225c0,9.4-2.8,12.2-12.1,12.2
		c-252.5,0-505,0-757.5,0c-9.7,0-12.4-2.7-12.4-12.5c0-75,0-150,0-225C42,44.7,44.7,42,54.4,42C180.6,42,306.7,42,432.9,42z
		 M796.5,69.4c-242.5,0-484.7,0-727.1,0c0,65.1,0,130,0,195.1c242.5,0,484.6,0,727.1,0C796.5,199.5,796.5,134.8,796.5,69.4z"/>
	<path class="st0" d="M366.1,186.1c0,12.5,0,24.9,0,37.5c-7.9,0-15.3,0-23.2,0c0-38,0-76,0-114.3c12.8,0,25.8-1.1,38.6,0.3
		c15.2,1.7,26.9,17.7,27.5,34.7c0.4,11.8-2.6,22.3-10.6,31.3c-0.9,1-1,3.3-0.6,4.8c4.3,14.3,8.7,28.5,13.3,43.5
		c-8.2,0-15.9,0.1-23.6-0.1c-1,0-2.4-1.9-2.8-3.2c-3.1-9.6-6.3-19.3-8.8-29.1C374.6,185.9,371.9,184.5,366.1,186.1z M366.5,129.4
		c0,12,0,23.7,0,35.4c13.7,0.7,17.1-2.4,17.6-15.9c0.1-1.5,0-3-0.1-4.5C383.4,131.8,379.6,128.4,366.5,129.4z"/>
	<path class="st0" d="M249.5,223.6c-8.1,0-15.7,0-23.4,0c-0.2-0.4-0.5-0.9-0.5-1.3c0.1-26-0.2-52,0.7-77.9
		c0.2-7.2,3.2-14.6,6.4-21.2c4.9-10.1,13.6-16,25.1-15.9c11.5,0,20.4,5.9,25,16.2c3.5,7.9,6.4,16.7,6.7,25.2
		c0.9,24.8,0.3,49.6,0.3,74.8c-7.9,0-15.6,0-23.7,0c0-11.9,0-23.8,0-36c-5.6,0-10.9,0-16.6,0C249.5,199.6,249.5,211.5,249.5,223.6z
		 M265.2,166c0-10.2,0.3-19.9-0.1-29.5c-0.2-4.1-2.5-7.8-7.6-7.6c-4.9,0.2-7.1,4.1-7.3,8.1c-0.4,9.5-0.1,19.1-0.1,28.9
		c2.1,0,4.1,0,6.1,0C259.2,166,262.3,166,265.2,166z"/>
	<path class="st0" d="M459.4,109.2c8,0,15.6,0,23.8,0c0,7.4,0,14.7,0,22c0,7.3,0,14.7,0,22c0.2,0.1,0.5,0.3,0.7,0.4
		c0.7-1.3,1.4-2.5,2-3.8c5.7-12.5,11.3-25.1,17.2-37.6c0.6-1.4,2.7-2.9,4.1-3c7.8-0.3,15.7-0.1,24.4-0.1c-1.7,3.6-3.1,6.8-4.7,10
		c-7,14.3-14,28.7-21.1,42.9c-1.3,2.5-1.2,4.4,0,6.8c8.4,16.9,16.7,34,24.9,51c0.6,1.1,0.9,2.4,1.6,4.1c-8.6,0-16.8,0.1-24.8-0.2
		c-1.2,0-2.8-1.9-3.5-3.3c-6-12.9-11.9-26-17.8-39c-0.7-1.5-1.4-3-2.8-4.4c0,15.4,0,30.9,0,46.6c-8.3,0-16,0-24,0
		C459.4,185.4,459.4,147.5,459.4,109.2z"/>
	<path class="st0" d="M134,185.5c0,12.9,0,25.4,0,38.1c-8.1,0-15.8,0-23.7,0c0-38.1,0-76,0-114.6c2.3,0,4.7,0,7.1,0
		c8,0,16,0.5,24-0.1c20-1.5,33.6,15.1,35.6,32.5c1.3,11.8-1,22.8-8.7,32.3c-6.3,7.7-14.2,11.8-24.2,11.8
		C140.9,185.5,137.8,185.5,134,185.5z M134.2,165c2.2,0,3.9,0,5.5,0c7.5,0,11.1-2.8,12.1-10.2c0.6-3.9,0.6-8,0.3-11.9
		c-1-12-6.1-15.6-17.9-13.1C134.2,141.4,134.2,153,134.2,165z"/>
	<path class="st0" d="M634.8,128.1c-5,0-9.5,0-14.3,0c0,25.5,0,50.9,0,76.6c4.8,0,9.4,0,14.2,0c0,6.4,0,12.5,0,18.9
		c-17.5,0-34.9,0-52.6,0c0-6.1,0-12.2,0-18.7c4.6,0,9.2,0,14.1,0c0-25.7,0-51,0-76.8c-4.6,0-9.3,0-14.2,0c0-6.5,0-12.4,0-18.7
		c17.5,0,35,0,52.8,0C634.8,115.4,634.8,121.5,634.8,128.1z"/>
	<path class="st0" d="M713.1,205c0-26,0-51.2,0-76.8c-4.5,0-9.1,0-13.9,0c0-6.5,0-12.6,0-18.9c17.4,0,34.8,0,52.5,0
		c0,6.1,0,12.2,0,18.7c-4.7,0-9.3,0-14.1,0c0,25.7,0,50.9,0,76.6c4.6,0,9.2,0,14.1,0c0,6.5,0,12.6,0,19c-17.4,0-34.8,0-52.4,0
		c0-6.1,0-12,0-18.5C703.5,205,708,205,713.1,205z"/>
</g>
</svg>
